<svg width="243" height="362" viewBox="0 0 243 362" fill="none" xmlns="http://www.w3.org/2000/svg">
<path d="M201.06 1H41.0119C18.9139 1 1 18.9086 1 41V321C1 343.091 18.9139 361 41.0119 361H201.06C223.158 361 241.071 343.091 241.071 321V41C241.071 18.9086 223.158 1 201.06 1Z" fill="white" stroke="black" stroke-width="2"/>
<path d="M201.06 21H41.0121C29.9631 21 21.0061 29.9543 21.0061 41V321C21.0061 332.046 29.9631 341 41.0121 341H201.06C212.109 341 221.066 332.046 221.066 321V41C221.066 29.9543 212.109 21 201.06 21Z" fill="#FFAA00"/>
<path fill-rule="evenodd" clip-rule="evenodd" d="M181.054 81C92.6619 81 21.0061 152.634 21.0061 241C21.0061 263.091 38.92 281 61.018 281C149.41 281 221.066 209.366 221.066 121C221.066 98.9086 203.152 81 181.054 81Z" fill="white"/>
<path fill-rule="evenodd" clip-rule="evenodd" d="M121.036 121C98.9379 121 81.0239 138.909 81.0239 161C81.0239 183.091 98.9379 201 121.036 201C128.306 201 135.166 199.013 141.042 195.625V201C141.042 212.046 132.085 221 121.036 221C113.216 221 106.571 216.412 103.281 209.875L85.2752 218.875C91.8342 232.012 105.35 241 121.036 241C143.134 241 161.048 223.091 161.048 201V161C161.048 138.909 143.134 121 121.036 121ZM121.036 141C132.085 141 141.042 149.954 141.042 161C141.042 172.046 132.085 181 121.036 181C109.987 181 101.03 172.046 101.03 161C101.03 149.954 109.987 141 121.036 141ZM101.03 245V253H141.042V245H101.03Z" fill="#FFAA00"/>
<path fill-rule="evenodd" clip-rule="evenodd" d="M51.015 91C62.064 91 71.0209 82.0457 71.0209 71V51C71.0209 39.9543 62.064 31 51.015 31C39.966 31 31.009 39.9543 31.009 51C31.009 62.0456 39.966 71 51.015 71C54.6501 71 58.0802 70.0065 61.018 68.3125V71C61.018 76.5228 56.5395 81 51.015 81C47.1053 81 43.7826 78.7059 42.1373 75.4375L33.1347 79.9375C36.4141 86.5062 43.1722 91 51.015 91ZM51.015 61C45.4905 61 41.012 56.5228 41.012 51C41.012 45.4772 45.4905 41 51.015 41C56.5395 41 61.018 45.4772 61.018 51C61.018 56.5228 56.5395 61 51.015 61Z" fill="white"/>
<path fill-rule="evenodd" clip-rule="evenodd" d="M191.056 271C180.007 271 171.051 279.954 171.051 291V311C171.051 322.046 180.007 331 191.056 331C202.105 331 211.062 322.046 211.062 311C211.062 299.954 202.105 291 191.056 291C187.421 291 183.991 291.993 181.054 293.687V291C181.054 285.477 185.532 281 191.056 281C194.966 281 198.289 283.294 199.934 286.562L208.937 282.062C205.657 275.494 198.899 271 191.056 271ZM191.056 301C196.581 301 201.059 305.477 201.059 311C201.059 316.523 196.581 321 191.056 321C185.532 321 181.054 316.523 181.054 311C181.054 305.477 185.532 301 191.056 301Z" fill="white"/>
</svg>