<svg width="243" height="362" viewBox="0 0 243 362" fill="none" xmlns="http://www.w3.org/2000/svg">
<path d="M201.06 1H41.0119C18.9139 1 1 18.9086 1 41V321C1 343.091 18.9139 361 41.0119 361H201.06C223.158 361 241.071 343.091 241.071 321V41C241.071 18.9086 223.158 1 201.06 1Z" fill="white" stroke="black" stroke-width="2"/>
<path d="M201.059 21H41.0118C29.9628 21 21.0059 29.9543 21.0059 41V321C21.0059 332.046 29.9628 341 41.0118 341H201.059C212.108 341 221.065 332.046 221.065 321V41C221.065 29.9543 212.108 21 201.059 21Z" fill="#5555FD"/>
<path fill-rule="evenodd" clip-rule="evenodd" d="M181.053 81C92.6616 81 21.0059 152.634 21.0059 241C21.0059 263.091 38.9198 281 61.0178 281C149.41 281 221.065 209.366 221.065 121C221.065 98.9086 203.151 81 181.053 81Z" fill="white"/>
<path d="M133.897 151H93.8851C88.3606 151 82.7265 155.043 81.3012 160.03L60.7407 231.97C59.3154 236.957 62.6385 241 68.163 241H108.175C113.699 241 119.333 236.957 120.759 231.97L141.319 160.03C142.744 155.043 139.421 151 133.897 151Z" fill="white" stroke="black" stroke-width="2.03962"/>
<path d="M121.036 161H101.03C95.5054 161 89.8714 165.043 88.4461 170.03L73.6015 221.97C72.1762 226.957 75.4993 231 81.0238 231H101.03C106.554 231 112.188 226.957 113.613 221.97L128.458 170.03C129.883 165.043 126.56 161 121.036 161Z" fill="#5555FD"/>
<path d="M173.909 121H133.897C128.373 121 122.739 125.042 121.313 130.03L100.753 201.97C99.3274 206.957 102.65 211 108.175 211H148.187C153.711 211 159.345 206.957 160.771 201.97L181.331 130.03C182.756 125.042 179.433 121 173.909 121Z" fill="white" stroke="black" stroke-width="2.03962"/>
<path d="M161.048 131H141.042C135.517 131 129.883 135.043 128.458 140.03L113.613 191.97C112.188 196.957 115.511 201 121.035 201H141.041C146.566 201 152.2 196.957 153.625 191.97L168.47 140.03C169.895 135.043 166.572 131 161.048 131Z" fill="#5555FD"/>
<path fill-rule="evenodd" clip-rule="evenodd" d="M35.0101 50.9998V61H25.0071V70.9998H35.0101V80.9998H45.013V70.9998H55.016V61H45.013V50.9998H35.0101Z" fill="white"/>
<path d="M81.0238 31C69.9405 31 61.0178 39.92 61.0178 51V53H71.0208V51C71.0208 45.46 75.4821 41 81.0238 41C86.5654 41 91.0268 45.46 91.0268 51C91.0268 53.255 89.1551 57.6803 87.2007 59.218C76.5879 67.5679 76.7 66.1889 61.0178 77V91H81.0238H101.03V81V77H91.0268V81H81.0238H73.0214C85.4052 72.2825 86.3107 72.4938 96.0143 63.8125C99.1234 61.031 101.03 55.5104 101.03 51C101.03 39.92 92.1071 31 81.0238 31Z" fill="white"/>
<path fill-rule="evenodd" clip-rule="evenodd" d="M207.061 311V301H217.064V291.001H207.061V281H197.058V291.001H187.055V301H197.058V311H207.061Z" fill="white"/>
<path d="M161.047 331C172.131 331 181.053 322.08 181.053 311V309H171.05V311C171.05 316.54 166.589 321 161.047 321C155.506 321 151.044 316.54 151.044 311C151.044 308.746 152.916 304.32 154.871 302.782C165.483 294.433 165.371 295.812 181.053 285V271H161.047H141.042V281V285H151.044V281H161.047H169.05C156.666 289.718 155.761 289.507 146.057 298.188C142.948 300.97 141.042 306.49 141.042 311C141.042 322.08 149.964 331 161.047 331Z" fill="white"/>
</svg>