<svg width="243" height="362" viewBox="0 0 243 362" fill="none" xmlns="http://www.w3.org/2000/svg">
<path d="M201.06 1H41.0119C18.9139 1 1 18.9086 1 41V321C1 343.091 18.9139 361 41.0119 361H201.06C223.158 361 241.071 343.091 241.071 321V41C241.071 18.9086 223.158 1 201.06 1Z" fill="white" stroke="black" stroke-width="2"/>
<path d="M201.059 20.9999H41.0118C29.9628 20.9999 21.0059 29.9542 21.0059 40.9999V321C21.0059 332.046 29.9628 341 41.0118 341H201.059C212.108 341 221.065 332.046 221.065 321V40.9999C221.065 29.9542 212.108 20.9999 201.059 20.9999Z" fill="#5555FF"/>
<path fill-rule="evenodd" clip-rule="evenodd" d="M181.053 80.9999C92.6616 80.9999 21.0059 152.634 21.0059 241C21.0059 263.091 38.9198 281 61.0178 281C149.41 281 221.065 209.366 221.065 121C221.065 98.9085 203.151 80.9999 181.053 80.9999Z" fill="white"/>
<path d="M121.036 121C104.462 121 91.0267 134.431 91.0267 151H111.033C111.033 145.477 115.511 141 121.036 141C126.56 141 131.039 145.477 131.039 151C131.039 156.523 126.56 161 121.036 161H109.032V181H121.036C132.119 181 141.042 189.92 141.042 201C141.042 212.08 132.119 221 121.036 221C109.952 221 101.03 212.08 101.03 201H81.0237C81.0237 223.16 98.8691 241 121.036 241C143.202 241 161.048 223.16 161.048 201C161.048 187.824 154.692 176.279 144.918 169C148.727 163.97 151.045 157.795 151.045 151C151.045 134.431 137.609 121 121.036 121Z" fill="#5555FF"/>
<path d="M51.0148 30.9999C42.7281 30.9999 36.0103 37.7157 36.0103 45.9999H46.0133C46.0133 43.2385 48.2526 40.9999 51.0148 40.9999C53.777 40.9999 56.0163 43.2385 56.0163 45.9999C56.0163 48.7613 53.777 50.9999 51.0148 50.9999H45.013V60.9998H51.0148C56.5565 60.9998 61.0178 65.4599 61.0178 70.9999C61.0178 76.5399 56.5565 80.9999 51.0148 80.9999C45.4732 80.9999 41.0118 76.5399 41.0118 70.9999H31.0089C31.0089 82.0799 39.9315 90.9999 51.0148 90.9999C62.0981 90.9999 71.0208 82.0799 71.0208 70.9999C71.0208 64.4121 67.8432 58.6397 62.9559 54.9999C64.8603 52.4851 66.0193 49.3973 66.0193 45.9999C66.0193 37.7157 59.3015 30.9999 51.0148 30.9999Z" fill="white"/>
<path d="M191.056 331C199.343 331 206.061 324.284 206.061 316H196.058C196.058 318.761 193.819 321 191.056 321C188.294 321 186.055 318.761 186.055 316C186.055 313.239 188.294 311 191.056 311H197.058V301H191.056C185.515 301 181.054 296.54 181.054 291C181.054 285.46 185.515 281 191.056 281C196.598 281 201.059 285.46 201.059 291H211.062C211.062 279.92 202.14 271 191.056 271C179.973 271 171.051 279.92 171.051 291C171.051 297.588 174.228 303.36 179.115 307C177.211 309.515 176.052 312.603 176.052 316C176.052 324.284 182.77 331 191.056 331Z" fill="white"/>
</svg>