<svg width="243" height="362" viewBox="0 0 243 362" fill="none" xmlns="http://www.w3.org/2000/svg">
<path d="M201.06 1H41.0119C18.9139 1 1 18.9086 1 41V321C1 343.091 18.9139 361 41.0119 361H201.06C223.158 361 241.071 343.091 241.071 321V41C241.071 18.9086 223.158 1 201.06 1Z" fill="white" stroke="black" stroke-width="2"/>
<path d="M201.059 21H41.0118C29.9628 21 21.0059 29.9543 21.0059 41V321C21.0059 332.046 29.9628 341 41.0118 341H201.059C212.108 341 221.065 332.046 221.065 321V41C221.065 29.9543 212.108 21 201.059 21Z" fill="#5555FD"/>
<path fill-rule="evenodd" clip-rule="evenodd" d="M181.053 81C92.6616 81 21.0059 152.634 21.0059 241C21.0059 263.091 38.9198 281 61.0178 281C149.41 281 221.065 209.366 221.065 121C221.065 98.9086 203.151 81 181.053 81Z" fill="white"/>
<path fill-rule="evenodd" clip-rule="evenodd" d="M121.161 121C105.801 120.98 90.3829 126.8 78.6484 138.5C55.1794 161.901 55.1157 199.913 78.5236 223.375C101.931 246.837 139.955 246.901 163.424 223.5C186.893 200.099 186.957 162.087 163.549 138.625C151.845 126.894 136.521 121.02 121.161 121ZM121.036 141C128.038 141.008 135.071 142.841 141.292 146.5L86.526 201.25C77.4819 185.899 79.5767 165.788 92.7778 152.625C100.601 144.825 110.796 140.987 121.036 141ZM155.547 160.625C164.653 175.988 162.522 196.186 149.295 209.375C136.08 222.552 115.993 224.488 100.655 215.375L155.547 160.625Z" fill="#5555FD"/>
<path fill-rule="evenodd" clip-rule="evenodd" d="M61.08 31.0001C53.4015 30.9881 45.694 33.8996 39.8278 39.7493C28.0956 51.4486 28.0636 70.4529 39.7653 82.1829C51.467 93.9127 70.4753 93.9446 82.2076 82.2452C93.9399 70.5459 93.9716 51.5416 82.2699 39.8118C76.419 33.9468 68.7586 31.0102 61.08 31.0001ZM61.0177 40.9991C64.5178 41.0031 68.0339 41.9193 71.1438 43.7489L43.7657 71.1213C39.2445 63.4464 40.2916 53.392 46.8909 46.8112C50.8018 42.9114 55.8987 40.9924 61.0177 40.9991ZM78.2697 50.8107C82.8221 58.4915 81.7568 68.5895 75.1442 75.1835C68.5381 81.7711 58.4964 82.7394 50.8289 78.1832L78.2697 50.8107Z" fill="white"/>
<path fill-rule="evenodd" clip-rule="evenodd" d="M181.116 271C173.437 270.988 165.73 273.9 159.864 279.749C148.131 291.449 148.099 310.453 159.801 322.183C171.503 333.913 190.511 333.945 202.243 322.245C213.976 310.546 214.007 291.542 202.306 279.812C196.455 273.947 188.794 271.01 181.116 271ZM181.054 280.999C184.554 281.003 188.07 281.919 191.18 283.749L163.802 311.121C159.28 303.446 160.327 293.392 166.927 286.811C170.838 282.911 175.935 280.992 181.054 280.999ZM198.306 290.811C202.858 298.491 201.793 308.59 195.18 315.183C188.574 321.771 178.532 322.739 170.865 318.183L198.306 290.811Z" fill="white"/>
</svg>