<svg width="242" height="362" viewBox="0 0 242 362" fill="none" xmlns="http://www.w3.org/2000/svg">
<path d="M201.06 1H41.0119C18.9139 1 1 18.9086 1 41V321C1 343.091 18.9139 361 41.0119 361H201.06C223.158 361 241.071 343.091 241.071 321V41C241.071 18.9086 223.158 1 201.06 1Z" fill="white" stroke="black" stroke-width="2"/>
<path d="M201.059 21H41.0118C29.9628 21 21.0059 29.9543 21.0059 41V321C21.0059 332.046 29.9628 341 41.0118 341H201.059C212.108 341 221.065 332.046 221.065 321V41C221.065 29.9543 212.108 21 201.059 21Z" fill="black"/>
<path fill-rule="evenodd" clip-rule="evenodd" d="M181.053 81C92.6616 81 21.0059 152.634 21.0059 241C21.0059 263.091 38.9198 281 61.0178 281C149.41 281 221.065 209.366 221.065 121C221.065 98.9086 203.151 81 181.053 81Z" fill="white"/>
<path d="M80.6238 31L61.0178 71V81H85.025V91H95.0279V81H101.03V71H95.0279V51H85.025V71H71.4208L91.0268 31H80.6238Z" fill="white"/>
<path fill-rule="evenodd" clip-rule="evenodd" d="M35.0101 51V61H25.0071V70.9998H35.0101V81H45.013V70.9998H55.016V61H45.013V51H35.0101Z" fill="white"/>
<path d="M161.447 331L181.053 291V281H157.046V271H147.043V281H141.042V291H147.043V311H157.046V291H170.65L151.044 331H161.447Z" fill="white"/>
<path fill-rule="evenodd" clip-rule="evenodd" d="M207.061 311V301H217.064V291H207.061V281H197.058V291H187.055V301H197.058V311H207.061Z" fill="white"/>
<path d="M123.894 131H83.8816C78.3571 131 72.7232 135.042 71.2979 140.029L50.7374 211.97C49.3121 216.957 52.6351 221 58.1596 221H98.1715C103.696 221 109.33 216.957 110.755 211.97L131.316 140.029C132.741 135.042 129.418 131 123.894 131Z" fill="white" stroke="black" stroke-width="2.03962"/>
<path d="M111.032 141H91.0264C85.502 141 79.868 145.043 78.4427 150.03L63.5982 201.97C62.1729 206.957 65.4959 211 71.0204 211H91.0264C96.5508 211 102.185 206.957 103.61 201.97L118.455 150.03C119.88 145.043 116.557 141 111.032 141Z" fill="#FF5555"/>
<path d="M163.905 101H123.893C118.369 101 112.735 105.042 111.31 110.029L90.7491 181.97C89.3238 186.957 92.6469 191 98.1713 191H138.183C143.708 191 149.342 186.957 150.767 181.97L171.327 110.029C172.753 105.042 169.43 101 163.905 101Z" fill="white" stroke="black" stroke-width="2.03962"/>
<path d="M151.044 111H131.038C125.514 111 119.88 115.043 118.454 120.03L103.61 171.97C102.185 176.957 105.508 181 111.032 181H131.038C136.563 181 142.196 176.957 143.622 171.97L158.466 120.03C159.892 115.043 156.569 111 151.044 111Z" fill="#5555FF"/>
<path d="M153.902 161H113.89C108.366 161 102.732 165.042 101.306 170.029L80.7459 241.97C79.3206 246.957 82.6437 251 88.1682 251H128.18C133.705 251 139.338 246.957 140.764 241.97L161.324 170.029C162.75 165.042 159.427 161 153.902 161Z" fill="white" stroke="black" stroke-width="2.03962"/>
<path d="M141.041 171H121.035C115.51 171 109.877 175.043 108.451 180.03L93.6067 231.97C92.1814 236.957 95.5045 241 101.029 241H121.035C126.559 241 132.193 236.957 133.619 231.97L148.463 180.03C149.888 175.043 146.565 171 141.041 171Z" fill="#FFAA00"/>
<path d="M193.914 131H153.902C148.378 131 142.744 135.043 141.319 140.03L120.758 211.97C119.333 216.957 122.656 221 128.18 221H168.192C173.717 221 179.351 216.957 180.776 211.97L201.337 140.03C202.762 135.043 199.439 131 193.914 131Z" fill="white" stroke="black" stroke-width="2.03962"/>
<path d="M181.053 141H161.047C155.522 141 149.889 145.043 148.463 150.03L133.619 201.97C132.193 206.957 135.516 211 141.041 211H161.047C166.571 211 172.205 206.957 173.631 201.97L188.475 150.03C189.9 145.043 186.577 141 181.053 141Z" fill="#55AA55"/>
</svg>