<svg width="241" height="362" viewBox="0 0 241 362" fill="none" xmlns="http://www.w3.org/2000/svg">
<path d="M201.06 1H41.0119C18.9139 1 1 18.9086 1 41V321C1 343.091 18.9139 361 41.0119 361H201.06C223.158 361 241.071 343.091 241.071 321V41C241.071 18.9086 223.158 1 201.06 1Z" fill="white" stroke="black" stroke-width="2"/>
<path d="M201.059 21H41.0118C29.9628 21 21.0059 29.9543 21.0059 41V321C21.0059 332.046 29.9628 341 41.0118 341H201.059C212.108 341 221.065 332.046 221.065 321V41C221.065 29.9543 212.108 21 201.059 21Z" fill="#B1B3BC"/>
<path fill-rule="evenodd" clip-rule="evenodd" d="M181.053 81C92.6616 81 21.0059 152.634 21.0059 241C21.0059 263.091 38.9198 281 61.0178 281C149.41 281 221.065 209.366 221.065 121C221.065 98.9086 203.151 81 181.053 81Z" fill="white"/>
<path d="M107.852 198.909V196.727C107.852 191.727 108.246 187.742 109.034 184.773C109.822 181.803 110.988 179.424 112.534 177.636C114.079 175.818 115.973 174.182 118.216 172.727C120.155 171.455 121.882 170.227 123.397 169.045C124.943 167.864 126.155 166.606 127.034 165.273C127.943 163.939 128.397 162.424 128.397 160.727C128.397 159.212 128.034 157.879 127.307 156.727C126.579 155.576 125.594 154.682 124.352 154.045C123.11 153.409 121.731 153.091 120.216 153.091C118.579 153.091 117.064 153.47 115.67 154.227C114.307 154.985 113.201 156.03 112.352 157.364C111.534 158.697 111.125 160.242 111.125 162H87.852C87.9126 155.333 89.4278 149.924 92.3975 145.773C95.3672 141.591 99.3066 138.53 104.216 136.591C109.125 134.621 114.519 133.636 120.397 133.636C126.882 133.636 132.67 134.591 137.761 136.5C142.852 138.379 146.867 141.227 149.807 145.045C152.746 148.833 154.216 153.576 154.216 159.273C154.216 162.939 153.579 166.167 152.307 168.955C151.064 171.712 149.322 174.152 147.079 176.273C144.867 178.364 142.276 180.273 139.307 182C137.125 183.273 135.291 184.591 133.807 185.955C132.322 187.288 131.201 188.818 130.443 190.545C129.685 192.242 129.307 194.303 129.307 196.727V198.909H107.852ZM118.943 229.455C115.428 229.455 112.413 228.227 109.897 225.773C107.413 223.288 106.185 220.273 106.216 216.727C106.185 213.273 107.413 210.318 109.897 207.864C112.413 205.409 115.428 204.182 118.943 204.182C122.276 204.182 125.216 205.409 127.761 207.864C130.337 210.318 131.64 213.273 131.67 216.727C131.64 219.091 131.019 221.242 129.807 223.182C128.625 225.091 127.079 226.621 125.17 227.773C123.261 228.894 121.185 229.455 118.943 229.455Z" fill="#B1B3BC"/>
</svg>