<svg width="243" height="362" viewBox="0 0 243 362" fill="none" xmlns="http://www.w3.org/2000/svg">
<path d="M201.06 1H41.0119C18.9139 1 1 18.9086 1 41V321C1 343.091 18.9139 361 41.0119 361H201.06C223.158 361 241.071 343.091 241.071 321V41C241.071 18.9086 223.158 1 201.06 1Z" fill="white" stroke="black" stroke-width="2"/>
<path d="M201.059 21H41.0118C29.9628 21 21.0059 29.9543 21.0059 41V321C21.0059 332.046 29.9628 341 41.0118 341H201.059C212.108 341 221.065 332.046 221.065 321V41C221.065 29.9543 212.108 21 201.059 21Z" fill="#FF5555"/>
<path fill-rule="evenodd" clip-rule="evenodd" d="M181.053 81C92.6616 81 21.0059 152.634 21.0059 241C21.0059 263.091 38.9198 281 61.0178 281C149.41 281 221.065 209.366 221.065 121C221.065 98.9086 203.151 81 181.053 81Z" fill="white"/>
<path d="M121.036 121C104.462 121 91.0267 134.431 91.0267 151H111.033C111.033 145.477 115.511 141 121.036 141C126.56 141 131.039 145.477 131.039 151C131.039 156.523 126.56 161 121.036 161H109.032V181H121.036C132.119 181 141.042 189.92 141.042 201C141.042 212.08 132.119 221 121.036 221C109.952 221 101.03 212.08 101.03 201H81.0237C81.0237 223.16 98.8691 241 121.036 241C143.202 241 161.048 223.16 161.048 201C161.048 187.824 154.692 176.28 144.918 169C148.727 163.97 151.045 157.795 151.045 151C151.045 134.431 137.609 121 121.036 121Z" fill="#FF5555"/>
<path d="M51.0148 31C42.7281 31 36.0103 37.7157 36.0103 46H46.0133C46.0133 43.2386 48.2526 41 51.0148 41C53.777 41 56.0163 43.2386 56.0163 46C56.0163 48.7614 53.777 51 51.0148 51H45.013V60.9999H51.0148C56.5565 60.9999 61.0178 65.46 61.0178 71C61.0178 76.54 56.5565 81 51.0148 81C45.4732 81 41.0118 76.54 41.0118 71H31.0089C31.0089 82.08 39.9315 91 51.0148 91C62.0981 91 71.0208 82.08 71.0208 71C71.0208 64.4121 67.8432 58.6398 62.9559 55C64.8603 52.4852 66.0193 49.3974 66.0193 46C66.0193 37.7157 59.3015 31 51.0148 31Z" fill="white"/>
<path d="M191.056 331C199.343 331 206.061 324.284 206.061 316H196.058C196.058 318.761 193.819 321 191.056 321C188.294 321 186.055 318.761 186.055 316C186.055 313.239 188.294 311 191.056 311H197.058V301H191.056C185.515 301 181.054 296.54 181.054 291C181.054 285.46 185.515 281 191.056 281C196.598 281 201.059 285.46 201.059 291H211.062C211.062 279.92 202.14 271 191.056 271C179.973 271 171.051 279.92 171.051 291C171.051 297.588 174.228 303.36 179.115 307C177.211 309.515 176.052 312.603 176.052 316C176.052 324.284 182.77 331 191.056 331Z" fill="white"/>
</svg>