<svg width="243" height="362" viewBox="0 0 243 362" fill="none" xmlns="http://www.w3.org/2000/svg">
<path d="M201.06 1H41.0119C18.9139 1 1 18.9086 1 41V321C1 343.091 18.9139 361 41.0119 361H201.06C223.158 361 241.071 343.091 241.071 321V41C241.071 18.9086 223.158 1 201.06 1Z" fill="white" stroke="black" stroke-width="2"/>
<path d="M201.059 21H41.0118C29.9628 21 21.0059 29.9543 21.0059 41V321C21.0059 332.046 29.9628 341 41.0118 341H201.059C212.108 341 221.065 332.046 221.065 321V41C221.065 29.9543 212.108 21 201.059 21Z" fill="#55AA55"/>
<path fill-rule="evenodd" clip-rule="evenodd" d="M181.053 81C92.6616 81 21.0059 152.634 21.0059 241C21.0059 263.091 38.9198 281 61.0178 281C149.41 281 221.065 209.366 221.065 121C221.065 98.9086 203.151 81 181.053 81Z" fill="white"/>
<path d="M85.0249 121V161V181H125.037C136.12 181 145.043 189.92 145.043 201C145.043 212.08 136.12 221 125.037 221C113.954 221 105.031 212.08 105.031 201H85.0249C85.0249 223.16 102.87 241 125.037 241C147.203 241 165.049 223.16 165.049 201C165.049 178.84 147.203 161 125.037 161H105.031V141H125.037H161.048V121H125.037H105.031H85.0249Z" fill="#55AA55"/>
<path d="M31.0089 31V51V61H51.0149C56.5565 61 61.0178 65.46 61.0178 71C61.0178 76.54 56.5565 81 51.0149 81C45.4732 81 41.0119 76.54 41.0119 71H31.0089C31.0089 82.08 39.9316 91 51.0149 91C62.0982 91 71.0208 82.08 71.0208 71C71.0208 59.92 62.0982 51 51.0149 51H41.0119V41H51.0149H69.0202V31H51.0149H41.0119H31.0089Z" fill="white"/>
<path d="M211.062 331V311V301H191.056C185.515 301 181.054 296.54 181.054 291C181.054 285.46 185.515 281 191.056 281C196.598 281 201.059 285.46 201.059 291H211.062C211.062 279.92 202.14 271 191.056 271C179.973 271 171.051 279.92 171.051 291C171.051 302.08 179.973 311 191.056 311H201.059V321H191.056H173.051V331H191.056H201.059H211.062Z" fill="white"/>
</svg>