<svg width="243" height="362" viewBox="0 0 243 362" fill="none" xmlns="http://www.w3.org/2000/svg">
<path d="M201.06 1H41.0119C18.9139 1 1 18.9086 1 41V321C1 343.091 18.9139 361 41.0119 361H201.06C223.158 361 241.071 343.091 241.071 321V41C241.071 18.9086 223.158 1 201.06 1Z" fill="white" stroke="black" stroke-width="2"/>
<path d="M201.06 21H41.0119C29.9629 21 21.006 29.9543 21.006 41V321C21.006 332.046 29.9629 341 41.0119 341H201.06C212.109 341 221.065 332.046 221.065 321V41C221.065 29.9543 212.109 21 201.06 21Z" fill="#55AA55"/>
<path fill-rule="evenodd" clip-rule="evenodd" d="M181.054 80.9999C92.6617 80.9999 21.006 152.634 21.006 241C21.006 263.091 38.9199 281 61.0179 281C149.41 281 221.065 209.365 221.065 121C221.065 98.9085 203.152 80.9999 181.054 80.9999Z" fill="white"/>
<path fill-rule="evenodd" clip-rule="evenodd" d="M121.036 121C98.9377 121 81.0238 138.909 81.0238 161V201C81.0238 223.091 98.9377 241 121.036 241C143.134 241 161.048 223.091 161.048 201V161C161.048 138.909 143.134 121 121.036 121ZM121.036 141C132.085 141 141.042 149.954 141.042 161V201C141.042 212.046 132.085 221 121.036 221C109.987 221 101.03 212.046 101.03 201V161C101.03 149.954 109.987 141 121.036 141Z" fill="#55AA55"/>
<path fill-rule="evenodd" clip-rule="evenodd" d="M51.0149 31C39.9659 31 31.0089 39.9543 31.0089 51V71C31.0089 82.0457 39.9659 91 51.0149 91C62.0639 91 71.0208 82.0457 71.0208 71V51C71.0208 39.9543 62.0639 31 51.0149 31ZM51.0149 41C56.5394 41 61.0179 45.4772 61.0179 51V71C61.0179 76.5228 56.5394 81 51.0149 81C45.4904 81 41.0119 76.5228 41.0119 71V51C41.0119 45.4772 45.4904 41 51.0149 41Z" fill="white"/>
<path fill-rule="evenodd" clip-rule="evenodd" d="M191.057 271C180.008 271 171.051 279.954 171.051 291V311C171.051 322.046 180.008 331 191.057 331C202.106 331 211.063 322.046 211.063 311V291C211.063 279.954 202.106 271 191.057 271ZM191.057 281C196.581 281 201.06 285.477 201.06 291V311C201.06 316.523 196.581 321 191.057 321C185.532 321 181.054 316.523 181.054 311V291C181.054 285.477 185.532 281 191.057 281Z" fill="white"/>
</svg>