<svg width="243" height="362" viewBox="0 0 243 362" fill="none" xmlns="http://www.w3.org/2000/svg">
<path d="M201.06 1H41.0119C18.9139 1 1 18.9086 1 41V321C1 343.091 18.9139 361 41.0119 361H201.06C223.158 361 241.071 343.091 241.071 321V41C241.071 18.9086 223.158 1 201.06 1Z" fill="white" stroke="black" stroke-width="2"/>
<path d="M201.059 21H41.0118C29.9628 21 21.0059 29.9543 21.0059 41V321C21.0059 332.046 29.9628 341 41.0118 341H201.059C212.108 341 221.065 332.046 221.065 321V41C221.065 29.9543 212.108 21 201.059 21Z" fill="#55AA55"/>
<path fill-rule="evenodd" clip-rule="evenodd" d="M181.053 81C92.6616 81 21.0059 152.634 21.0059 241C21.0059 263.091 38.9198 281 61.0178 281C149.41 281 221.065 209.366 221.065 121C221.065 98.9086 203.151 81 181.053 81Z" fill="white"/>
<path fill-rule="evenodd" clip-rule="evenodd" d="M121.036 121C98.9376 121 81.0237 138.909 81.0237 161V201C81.0237 223.091 98.9376 241 121.036 241C143.134 241 161.047 223.091 161.047 201C161.047 178.909 143.134 161 121.036 161C113.765 161 106.905 162.987 101.03 166.375V161C101.03 149.954 109.987 141 121.036 141C128.855 141 135.5 145.588 138.791 152.125L156.796 143.125C150.237 129.988 136.721 121 121.036 121ZM121.036 181C132.085 181 141.042 189.954 141.042 201C141.042 212.046 132.085 221 121.036 221C109.987 221 101.03 212.046 101.03 201C101.03 189.954 109.987 181 121.036 181ZM101.03 245V253H141.042V245H101.03Z" fill="#55AA55"/>
<path fill-rule="evenodd" clip-rule="evenodd" d="M51.0147 31C39.9657 31 31.0088 39.9543 31.0088 51V70.9999C31.0088 82.0456 39.9657 91 51.0147 91C62.0637 91 71.0207 82.0456 71.0207 70.9999C71.0207 59.9542 62.0637 51 51.0147 51C47.3797 51 43.9495 51.9935 41.0118 53.6875V51C41.0118 45.4772 45.4903 41 51.0147 41C54.9244 41 58.2471 43.2941 59.8924 46.5625L68.8951 42.0625C65.6156 35.4938 58.8576 31 51.0147 31ZM51.0147 61C56.5392 61 61.0177 65.477 61.0177 70.9999C61.0177 76.5227 56.5392 81 51.0147 81C45.4903 81 41.0118 76.5227 41.0118 70.9999C41.0118 65.477 45.4903 61 51.0147 61Z" fill="white"/>
<path fill-rule="evenodd" clip-rule="evenodd" d="M191.056 331C202.105 331 211.062 322.045 211.062 311V291C211.062 279.954 202.105 271 191.056 271C180.007 271 171.05 279.954 171.05 291C171.05 302.046 180.007 311 191.056 311C194.691 311 198.122 310.006 201.059 308.312V311C201.059 316.523 196.581 321 191.056 321C187.147 321 183.824 318.706 182.179 315.437L173.176 319.937C176.456 326.506 183.214 331 191.056 331ZM191.056 301C185.532 301 181.053 296.523 181.053 291C181.053 285.477 185.532 281 191.056 281C196.581 281 201.059 285.477 201.059 291C201.059 296.523 196.581 301 191.056 301Z" fill="white"/>
</svg>