<svg width="243" height="362" viewBox="0 0 243 362" fill="none" xmlns="http://www.w3.org/2000/svg">
<path d="M201.06 1H41.0119C18.9139 1 1 18.9086 1 41V321C1 343.091 18.9139 361 41.0119 361H201.06C223.158 361 241.071 343.091 241.071 321V41C241.071 18.9086 223.158 1 201.06 1Z" fill="white" stroke="black" stroke-width="2"/>
<path d="M201.06 21H41.0121C29.9631 21 21.0061 29.9543 21.0061 41V321C21.0061 332.046 29.9631 341 41.0121 341H201.06C212.109 341 221.066 332.046 221.066 321V41C221.066 29.9543 212.109 21 201.06 21Z" fill="#FFAA00"/>
<path fill-rule="evenodd" clip-rule="evenodd" d="M181.054 81C92.6619 81 21.0061 152.634 21.0061 241C21.0061 263.091 38.92 281 61.018 281C149.41 281 221.066 209.366 221.066 121C221.066 98.9086 203.152 81 181.054 81Z" fill="white"/>
<path d="M121.036 121C104.462 121 91.0269 134.431 91.0269 151C91.0269 157.795 93.3448 163.97 97.1537 169C87.3791 176.28 81.0239 187.824 81.0239 201C81.0239 223.16 98.8692 241 121.036 241C143.202 241 161.048 223.16 161.048 201C161.048 187.824 154.693 176.28 144.918 169C148.727 163.97 151.045 157.795 151.045 151C151.045 134.431 137.609 121 121.036 121ZM121.036 141C126.56 141 131.039 145.477 131.039 151C131.039 156.523 126.56 161 121.036 161C115.511 161 111.033 156.523 111.033 151C111.033 145.477 115.511 141 121.036 141ZM119.035 181C119.709 180.932 120.343 181 121.036 181C132.119 181 141.042 189.92 141.042 201C141.042 212.08 132.119 221 121.036 221C109.953 221 101.03 212.08 101.03 201C101.03 190.612 108.923 182.02 119.035 181Z" fill="#FFAA00"/>
<path d="M51.015 31C42.7282 31 36.0105 37.7156 36.0105 46C36.0105 49.3974 37.1695 52.4852 39.0739 55C34.1866 58.6398 31.009 64.412 31.009 71C31.009 82.08 39.9317 91 51.015 91C62.0983 91 71.0209 82.08 71.0209 71C71.0209 64.412 67.8434 58.6398 62.956 55C64.8605 52.4852 66.0195 49.3974 66.0195 46C66.0195 37.7156 59.3017 31 51.015 31ZM51.015 41C53.7772 41 56.0165 43.2386 56.0165 46C56.0165 48.7614 53.7772 51 51.015 51C48.2528 51 46.0135 48.7614 46.0135 46C46.0135 43.2386 48.2528 41 51.015 41ZM50.0147 60.9999C50.3516 60.9639 50.6686 60.9999 51.015 60.9999C56.5566 60.9999 61.018 65.46 61.018 71C61.018 76.54 56.5566 81 51.015 81C45.4733 81 41.012 76.54 41.012 71C41.012 65.8062 44.9584 61.5101 50.0147 60.9999Z" fill="white"/>
<path d="M191.057 331C182.77 331 176.052 324.284 176.052 316C176.052 312.603 177.211 309.515 179.116 307C174.228 303.36 171.051 297.588 171.051 291C171.051 279.92 179.973 271 191.057 271C202.14 271 211.063 279.92 211.063 291C211.063 297.588 207.885 303.36 202.998 307C204.902 309.515 206.061 312.603 206.061 316C206.061 324.284 199.343 331 191.057 331ZM191.057 321C193.819 321 196.058 318.761 196.058 316C196.058 313.239 193.819 311 191.057 311C188.295 311 186.055 313.239 186.055 316C186.055 318.761 188.295 321 191.057 321ZM190.056 301C190.393 301.036 190.71 301 191.057 301C196.598 301 201.06 296.54 201.06 291C201.06 285.46 196.598 281 191.057 281C185.515 281 181.054 285.46 181.054 291C181.054 296.194 185 300.49 190.056 301Z" fill="white"/>
</svg>