<svg width="243" height="362" viewBox="0 0 243 362" fill="none" xmlns="http://www.w3.org/2000/svg">
<path d="M201.06 1H41.0119C18.9139 1 1 18.9086 1 41V321C1 343.091 18.9139 361 41.0119 361H201.06C223.158 361 241.071 343.091 241.071 321V41C241.071 18.9086 223.158 1 201.06 1Z" fill="white" stroke="black" stroke-width="2"/>
<path d="M201.06 21H41.0119C29.963 21 21.006 29.9543 21.006 41V321C21.006 332.046 29.963 341 41.0119 341H201.06C212.109 341 221.066 332.046 221.066 321V41C221.066 29.9543 212.109 21 201.06 21Z" fill="#FFAA00"/>
<path fill-rule="evenodd" clip-rule="evenodd" d="M181.054 81C92.6617 81 21.006 152.634 21.006 241C21.006 263.091 38.9199 281 61.0179 281C149.41 281 221.066 209.366 221.066 121C221.066 98.9086 203.152 81 181.054 81Z" fill="white"/>
<path d="M117.035 121C94.868 121 77.0226 138.84 77.0226 161V165H97.0286V161C97.0286 149.92 105.951 141 117.035 141C128.118 141 137.041 149.92 137.041 161C137.041 165.51 133.297 174.361 129.388 177.436C108.163 194.136 108.387 191.378 77.0226 213V241H117.035H157.046V221V213H137.041V221H117.035H101.03C125.797 203.565 127.608 203.988 147.016 186.625C153.234 181.062 157.046 170.021 157.046 161C157.046 138.84 139.201 121 117.035 121Z" fill="#FFAA00"/>
<path d="M51.0149 31C39.9316 31 31.009 39.92 31.009 51V53H41.0119V51C41.0119 45.46 45.4733 41 51.0149 41C56.5566 41 61.0179 45.46 61.0179 51C61.0179 53.255 59.1463 57.6803 57.1919 59.218C46.5791 67.5679 46.6911 66.1889 31.009 77V91H51.0149H71.0209V81V77H61.0179V81H51.0149H43.0125C55.3963 72.2825 56.3019 72.4938 66.0055 63.8125C69.1146 61.031 71.0209 55.5104 71.0209 51C71.0209 39.92 62.0982 31 51.0149 31Z" fill="white"/>
<path d="M191.057 331C202.14 331 211.063 322.08 211.063 311V309H201.06V311C201.06 316.54 196.598 321 191.057 321C185.515 321 181.054 316.54 181.054 311C181.054 308.745 182.925 304.32 184.88 302.782C195.492 294.432 195.38 295.811 211.063 285V271H191.057H171.051V281V285H181.054V281H191.057H199.059C186.675 289.717 185.77 289.506 176.066 298.187C172.957 300.969 171.051 306.49 171.051 311C171.051 322.08 179.973 331 191.057 331Z" fill="white"/>
</svg>