<svg width="243" height="362" viewBox="0 0 243 362" fill="none" xmlns="http://www.w3.org/2000/svg">
<path d="M201.06 1H41.0119C18.9139 1 1 18.9086 1 41V321C1 343.091 18.9139 361 41.0119 361H201.06C223.158 361 241.071 343.091 241.071 321V41C241.071 18.9086 223.158 1 201.06 1Z" fill="white" stroke="black" stroke-width="2"/>
<path d="M201.059 20.9999H41.0118C29.9628 20.9999 21.0058 29.9542 21.0058 40.9999V321C21.0058 332.046 29.9628 341 41.0118 341H201.059C212.108 341 221.065 332.046 221.065 321V40.9999C221.065 29.9542 212.108 20.9999 201.059 20.9999Z" fill="#5555FF"/>
<path fill-rule="evenodd" clip-rule="evenodd" d="M181.053 80.9999C92.6616 80.9999 21.0058 152.634 21.0058 241C21.0058 263.091 38.9198 281 61.0177 281C149.41 281 221.065 209.366 221.065 121C221.065 98.9085 203.151 80.9999 181.053 80.9999Z" fill="white"/>
<path fill-rule="evenodd" clip-rule="evenodd" d="M113.033 121L93.0273 141V165L113.033 145V241H133.039V121H113.033Z" fill="#5555FF"/>
<path fill-rule="evenodd" clip-rule="evenodd" d="M41.0118 30.9999L31.0088 40.9999V52.9999L41.0118 42.9999V90.9999H51.0148V30.9999H41.0118Z" fill="white"/>
<path fill-rule="evenodd" clip-rule="evenodd" d="M201.059 331L211.062 321V309L201.059 319V271H191.056V331H201.059Z" fill="white"/>
</svg>