<svg width="243" height="362" viewBox="0 0 243 362" fill="none" xmlns="http://www.w3.org/2000/svg">
<path d="M201.06 1H41.0119C18.9139 1 1 18.9086 1 41V321C1 343.091 18.9139 361 41.0119 361H201.06C223.158 361 241.071 343.091 241.071 321V41C241.071 18.9086 223.158 1 201.06 1Z" fill="white" stroke="black" stroke-width="2"/>
<path d="M201.06 20.9999H41.0119C29.963 20.9999 21.006 29.9542 21.006 40.9999V321C21.006 332.046 29.963 341 41.0119 341H201.06C212.109 341 221.066 332.046 221.066 321V40.9999C221.066 29.9542 212.109 20.9999 201.06 20.9999Z" fill="#5555FF"/>
<path fill-rule="evenodd" clip-rule="evenodd" d="M181.054 80.9999C92.6617 80.9999 21.006 152.634 21.006 241C21.006 263.091 38.9199 281 61.0179 281C149.41 281 221.066 209.366 221.066 121C221.066 98.9085 203.152 80.9999 181.054 80.9999Z" fill="white"/>
<path fill-rule="evenodd" clip-rule="evenodd" d="M87.0256 121V161H107.032V141H147.043L107.032 241H127.038L167.049 141V121H107.032H87.0256Z" fill="#5555FF"/>
<path fill-rule="evenodd" clip-rule="evenodd" d="M31.0089 30.9999V50.9999H41.0119V40.9999H61.0178L41.0119 90.9999H51.0149L71.0208 40.9999V30.9999H41.0119H31.0089Z" fill="white"/>
<path fill-rule="evenodd" clip-rule="evenodd" d="M211.062 331V311H201.059V321H181.054L201.059 271H191.056L171.051 321V331H201.059H211.062Z" fill="white"/>
</svg>