<svg width="243" height="362" viewBox="0 0 243 362" fill="none" xmlns="http://www.w3.org/2000/svg">
<path d="M201.06 1H41.0119C18.9139 1 1 18.9086 1 41V321C1 343.091 18.9139 361 41.0119 361H201.06C223.158 361 241.071 343.091 241.071 321V41C241.071 18.9086 223.158 1 201.06 1Z" fill="white" stroke="black" stroke-width="2"/>
<path d="M201.06 20.9999H41.0121C29.9631 20.9999 21.0061 29.9542 21.0061 40.9999V321C21.0061 332.046 29.9631 341 41.0121 341H201.06C212.109 341 221.066 332.046 221.066 321V40.9999C221.066 29.9542 212.109 20.9999 201.06 20.9999Z" fill="#5555FF"/>
<path fill-rule="evenodd" clip-rule="evenodd" d="M181.054 80.9999C92.6619 80.9999 21.0061 152.634 21.0061 241C21.0061 263.091 38.92 281 61.018 281C149.41 281 221.066 209.366 221.066 121C221.066 98.9085 203.152 80.9999 181.054 80.9999Z" fill="white"/>
<path d="M121.036 121C104.462 121 91.0269 134.431 91.0269 151C91.0269 157.795 93.3448 163.97 97.1537 169C87.3791 176.28 81.0239 187.824 81.0239 201C81.0239 223.16 98.8692 241 121.036 241C143.202 241 161.048 223.16 161.048 201C161.048 187.824 154.693 176.28 144.918 169C148.727 163.97 151.045 157.795 151.045 151C151.045 134.431 137.609 121 121.036 121ZM121.036 141C126.56 141 131.039 145.477 131.039 151C131.039 156.523 126.56 161 121.036 161C115.511 161 111.033 156.523 111.033 151C111.033 145.477 115.511 141 121.036 141ZM119.035 181C119.709 180.932 120.343 181 121.036 181C132.119 181 141.042 189.92 141.042 201C141.042 212.08 132.119 221 121.036 221C109.953 221 101.03 212.08 101.03 201C101.03 190.612 108.923 182.02 119.035 181Z" fill="#5555FF"/>
<path d="M51.015 30.9999C42.7282 30.9999 36.0105 37.7155 36.0105 45.9999C36.0105 49.3973 37.1695 52.4851 39.0739 54.9999C34.1866 58.6397 31.009 64.4119 31.009 70.9999C31.009 82.0799 39.9317 90.9999 51.015 90.9999C62.0983 90.9999 71.0209 82.0799 71.0209 70.9999C71.0209 64.4119 67.8434 58.6397 62.956 54.9999C64.8605 52.4851 66.0195 49.3973 66.0195 45.9999C66.0195 37.7155 59.3017 30.9999 51.015 30.9999ZM51.015 40.9999C53.7772 40.9999 56.0165 43.2385 56.0165 45.9999C56.0165 48.7613 53.7772 50.9999 51.015 50.9999C48.2528 50.9999 46.0135 48.7613 46.0135 45.9999C46.0135 43.2385 48.2528 40.9999 51.015 40.9999ZM50.0147 60.9998C50.3516 60.9638 50.6686 60.9998 51.015 60.9998C56.5566 60.9998 61.018 65.4599 61.018 70.9999C61.018 76.5399 56.5566 80.9999 51.015 80.9999C45.4733 80.9999 41.012 76.5399 41.012 70.9999C41.012 65.8061 44.9584 61.5101 50.0147 60.9998Z" fill="white"/>
<path d="M191.057 331C182.77 331 176.052 324.284 176.052 316C176.052 312.603 177.211 309.515 179.116 307C174.228 303.36 171.051 297.588 171.051 291C171.051 279.92 179.973 271 191.057 271C202.14 271 211.063 279.92 211.063 291C211.063 297.588 207.885 303.36 202.998 307C204.902 309.515 206.061 312.603 206.061 316C206.061 324.284 199.343 331 191.057 331ZM191.057 321C193.819 321 196.058 318.761 196.058 316C196.058 313.239 193.819 311 191.057 311C188.295 311 186.055 313.239 186.055 316C186.055 318.761 188.295 321 191.057 321ZM190.056 301C190.393 301.036 190.71 301 191.057 301C196.598 301 201.06 296.54 201.06 291C201.06 285.46 196.598 281 191.057 281C185.515 281 181.054 285.46 181.054 291C181.054 296.194 185 300.49 190.056 301Z" fill="white"/>
</svg>