<svg width="243" height="362" viewBox="0 0 243 362" fill="none" xmlns="http://www.w3.org/2000/svg">
<path d="M201.06 1H41.0119C18.9139 1 1 18.9086 1 41V321C1 343.091 18.9139 361 41.0119 361H201.06C223.158 361 241.071 343.091 241.071 321V41C241.071 18.9086 223.158 1 201.06 1Z" fill="white" stroke="black" stroke-width="2"/>
<path d="M201.06 20.9999H41.012C29.963 20.9999 21.006 29.9542 21.006 40.9999V321C21.006 332.046 29.963 341 41.012 341H201.06C212.109 341 221.066 332.046 221.066 321V40.9999C221.066 29.9542 212.109 20.9999 201.06 20.9999Z" fill="#5555FF"/>
<path fill-rule="evenodd" clip-rule="evenodd" d="M181.054 80.9999C92.6618 80.9999 21.006 152.634 21.006 241C21.006 263.091 38.92 281 61.0179 281C149.41 281 221.066 209.366 221.066 121C221.066 98.9085 203.152 80.9999 181.054 80.9999Z" fill="white"/>
<path d="M116.234 121L77.0227 201V221H125.037V241H145.043V221H157.047V201H145.043V161H125.037V201H97.8289L137.041 121H116.234Z" fill="#5555FF"/>
<path d="M50.2148 30.9999L30.6089 70.9999V80.9999H54.6161V90.9999H64.6191V80.9999H70.6209V70.9999H64.6191V50.9999H54.6161V70.9999H41.0121L60.6179 30.9999H50.2148Z" fill="white"/>
<path d="M191.057 331L210.663 291V281H186.655V271H176.652V281H170.651V291H176.652V311H186.655V291H200.259L180.654 331H191.057Z" fill="white"/>
</svg>