<svg width="241" height="362" viewBox="0 0 241 362" fill="none" xmlns="http://www.w3.org/2000/svg">
<path d="M201.06 1H41.0119C18.9139 1 1 18.9086 1 41V321C1 343.091 18.9139 361 41.0119 361H201.06C223.158 361 241.071 343.091 241.071 321V41C241.071 18.9086 223.158 1 201.06 1Z" fill="white" stroke="black" stroke-width="2"/>
<path d="M201.059 21H41.0118C29.9628 21 21.0059 29.9543 21.0059 41V321C21.0059 332.046 29.9628 341 41.0118 341H201.059C212.108 341 221.065 332.046 221.065 321V41C221.065 29.9543 212.108 21 201.059 21Z" fill="black"/>
<path fill-rule="evenodd" clip-rule="evenodd" d="M181.053 81C92.6616 81 21.0059 152.634 21.0059 241C21.0059 263.091 38.9198 281 61.0178 281C149.41 281 221.065 209.366 221.065 121C221.065 98.9086 203.151 81 181.053 81Z" fill="white"/>
<path fill-rule="evenodd" clip-rule="evenodd" d="M32.7594 181C25.2444 199.542 21.0059 219.763 21.0059 241C21.0059 263.091 38.9198 281 61.0178 281L121.036 181H32.7594Z" fill="#FFAA00"/>
<path fill-rule="evenodd" clip-rule="evenodd" d="M121.036 181L61.0178 281C128.167 281 185.557 239.611 209.312 181H121.036Z" fill="#00AA00"/>
<path fill-rule="evenodd" clip-rule="evenodd" d="M181.053 81C113.905 81 56.5139 122.389 32.7593 181H121.036L181.053 81Z" fill="#FF5555"/>
<path fill-rule="evenodd" clip-rule="evenodd" d="M181.054 81L121.036 181H209.312C216.827 162.458 221.065 142.237 221.065 121C221.065 98.9086 203.151 81 181.054 81Z" fill="#5555FF"/>
<path fill-rule="evenodd" clip-rule="evenodd" d="M33.9472 55.9998C32.0684 60.6352 31.0088 65.6906 31.0088 70.9998C31.0088 76.5226 35.4873 80.9998 41.0118 80.9998L56.0162 55.9998H33.9472Z" fill="#FFAA00"/>
<path fill-rule="evenodd" clip-rule="evenodd" d="M56.0162 55.9998L41.0117 80.9998C57.7989 80.9998 72.1466 70.6524 78.0853 55.9998H56.0162Z" fill="#00AA00"/>
<path fill-rule="evenodd" clip-rule="evenodd" d="M71.0208 30.9998C54.2336 30.9998 39.8859 41.3471 33.9473 55.9998H56.0163L71.0208 30.9998Z" fill="#FF5555"/>
<path fill-rule="evenodd" clip-rule="evenodd" d="M71.0206 30.9998L56.0161 55.9998H78.0852C79.9639 51.3643 81.0236 46.3089 81.0236 40.9998C81.0236 35.4769 76.545 30.9998 71.0206 30.9998Z" fill="#5555FF"/>
<path fill-rule="evenodd" clip-rule="evenodd" d="M163.986 306C162.107 310.635 161.047 315.691 161.047 321C161.047 326.523 165.526 331 171.05 331L186.055 306H163.986Z" fill="#FFAA00"/>
<path fill-rule="evenodd" clip-rule="evenodd" d="M186.055 306L171.051 331C187.838 331 202.185 320.652 208.124 306H186.055Z" fill="#00AA00"/>
<path fill-rule="evenodd" clip-rule="evenodd" d="M201.059 281C184.272 281 169.925 291.347 163.986 306H186.055L201.059 281Z" fill="#FF5555"/>
<path fill-rule="evenodd" clip-rule="evenodd" d="M201.059 281L186.055 306H208.124C210.003 301.364 211.062 296.309 211.062 291C211.062 285.477 206.584 281 201.059 281Z" fill="#5555FF"/>
<path d="M181.053 80.9999C113.905 80.9999 56.514 122.389 32.7594 181C25.2444 199.542 21.0059 219.763 21.0059 241C21.0059 263.091 38.9198 281 61.0178 281C128.167 281 185.557 239.611 209.312 181C216.827 162.458 221.065 142.237 221.065 121C221.065 98.9085 203.151 80.9999 181.053 80.9999Z" stroke="white" stroke-width="4"/>
<path d="M71.0207 30.9999C54.2335 30.9999 39.8858 41.3472 33.9472 55.9999C32.0684 60.6353 31.0088 65.6907 31.0088 70.9999C31.0088 76.5227 35.4873 80.9999 41.0118 80.9999C57.799 80.9999 72.1466 70.6526 78.0853 55.9999C79.9641 51.3644 81.0237 46.309 81.0237 40.9999C81.0237 35.477 76.5451 30.9999 71.0207 30.9999Z" stroke="white" stroke-width="4"/>
<path d="M201.059 281C184.272 281 169.924 291.347 163.986 306C162.107 310.635 161.047 315.691 161.047 321C161.047 326.523 165.526 331 171.05 331C187.838 331 202.185 320.653 208.124 306C210.003 301.364 211.062 296.309 211.062 291C211.062 285.477 206.584 281 201.059 281Z" stroke="white" stroke-width="4"/>
</svg>