<svg width="243" height="362" viewBox="0 0 243 362" fill="none" xmlns="http://www.w3.org/2000/svg">
<path d="M201.06 1H41.0119C18.9139 1 1 18.9086 1 41V321C1 343.091 18.9139 361 41.0119 361H201.06C223.158 361 241.071 343.091 241.071 321V41C241.071 18.9086 223.158 1 201.06 1Z" fill="white" stroke="black" stroke-width="2"/>
<path d="M201.06 21H41.0121C29.9631 21 21.0061 29.9543 21.0061 41V321C21.0061 332.046 29.9631 341 41.0121 341H201.06C212.109 341 221.066 332.046 221.066 321V41C221.066 29.9543 212.109 21 201.06 21Z" fill="#55AA55"/>
<path fill-rule="evenodd" clip-rule="evenodd" d="M181.054 81C92.6619 81 21.0061 152.634 21.0061 241C21.0061 263.091 38.92 281 61.018 281C149.41 281 221.066 209.366 221.066 121C221.066 98.9086 203.152 81 181.054 81Z" fill="white"/>
<path d="M121.036 116L131.039 126L91.0269 166C81.0239 176 81.0239 196 91.0269 206L111.033 186L151.045 146L161.048 156V116H121.036Z" fill="#55AA55"/>
<path d="M121.036 246L111.033 236L151.045 196C161.048 186 161.048 166 151.045 156L131.039 176L91.0269 216L81.0239 206V246H121.036Z" fill="#55AA55"/>
<path d="M51.0149 30.9999L56.0163 35.9999L36.0104 55.9999C31.0089 60.9999 31.0089 70.9999 36.0104 75.9999L46.0134 65.9999L66.0193 45.9999L71.0208 50.9999V30.9999H51.0149Z" fill="white"/>
<path d="M51.015 95.9999L46.0135 90.9999L66.0194 70.9999C71.0209 65.9999 71.0209 55.9999 66.0194 50.9999L56.0165 60.9999L36.0105 80.9999L31.009 75.9999V95.9999H51.015Z" fill="white"/>
<path d="M191.057 266L196.058 271L176.052 291C171.051 296 171.051 306 176.052 311L186.055 301L206.061 281L211.063 286V266H191.057Z" fill="white"/>
<path d="M191.057 331L186.055 326L206.061 306C211.063 301 211.063 291 206.061 286L196.058 296L176.052 316L171.051 311V331H191.057Z" fill="white"/>
</svg>